STARTFONT 2.1
FONT -Monotype-Monotype Corsiva-Regular-R-Normal--24-240-75-75-P-115-iso8859-4
SIZE 24 75 75
FONTBOUNDINGBOX 31 28 -4 -7

STARTPROPERTIES 24
FOUNDRY "Monotype"
FAMILY_NAME "Monotype Corsiva"
WEIGHT_NAME "Regular"
SLANT "R"
SETWIDTH_NAME "Normal"
ADD_STYLE_NAME ""
PIXEL_SIZE 24
POINT_SIZE 240
RESOLUTION_X 75
RESOLUTION_Y 75
SPACING "P"
AVERAGE_WIDTH 115
CHARSET_REGISTRY "iso8859"
CHARSET_ENCODING "4"
FACE_NAME "Monotype Corsiva ISO Latin4"
_DEC_DEVICE_FONTNAMES "PS=monotypecorsiva-lat4"
COPYRIGHT "Copyright (c) 1993 Monotype Typography Ltd."
CAP_HEIGHT 17
X_HEIGHT 12
WEIGHT 10
QUAD_WIDTH 13
DEFAULT_CHAR 160
FONT_DESCENT 7
FONT_ASCENT 21
ENDPROPERTIES

CHARS 191

STARTCHAR space
ENCODING 32
SWIDTH 220 0
DWIDTH 5 0
BBX 0 0 0 0
BITMAP
ENDCHAR

STARTCHAR exclam
ENCODING 33
SWIDTH 280 0
DWIDTH 7 0
BBX 4 15 4 0
BITMAP
30
30
30
30
20
20
20
60
40
40
40
00
C0
C0
C0
ENDCHAR

STARTCHAR quotedbl
ENCODING 34
SWIDTH 220 0
DWIDTH 5 0
BBX 6 7 3 8
BITMAP
24
6C
48
48
48
88
90
ENDCHAR

STARTCHAR numbersign
ENCODING 35
SWIDTH 680 0
DWIDTH 17 0
BBX 14 13 4 1
BITMAP
0330
0220
0620
0460
3FFC
0C40
0CC0
0880
FFF0
1980
1100
3100
3300
ENDCHAR

STARTCHAR dollar
ENCODING 36
SWIDTH 440 0
DWIDTH 11 0
BBX 10 20 2 -3
BITMAP
0100
0100
07C0
0AC0
1200
1200
1200
1C00
1C00
0E00
0700
0B00
0900
0900
0A00
D600
F800
1000
1000
2000
ENDCHAR

STARTCHAR percent
ENCODING 37
SWIDTH 680 0
DWIDTH 17 0
BBX 14 15 4 0
BITMAP
1820
2440
4640
4680
C480
C500
4900
3238
0248
048C
048C
0988
1188
1090
2060
ENDCHAR

STARTCHAR ampersand
ENCODING 38
SWIDTH 780 0
DWIDTH 20 0
BBX 19 18 3 -1
BITMAP
000020
000020
001FC0
003300
004200
004600
004600
1E4400
230C00
420C00
DC0800
C21800
C19000
60B000
706040
3FA040
0E1880
000F00
ENDCHAR

STARTCHAR quoteright
ENCODING 39
SWIDTH 240 0
DWIDTH 6 0
BBX 3 6 5 11
BITMAP
60
60
60
40
80
80
ENDCHAR

STARTCHAR parenleft
ENCODING 40
SWIDTH 260 0
DWIDTH 7 0
BBX 10 23 2 -6
BITMAP
00C0
0300
0400
0C00
1800
1000
3000
2000
6000
4000
4000
C000
8000
8000
8000
8000
8000
8000
8000
4000
4000
4000
2000
ENDCHAR

STARTCHAR parenright
ENCODING 41
SWIDTH 220 0
DWIDTH 5 0
BBX 9 23 -1 -6
BITMAP
0200
0100
0100
0080
0080
0080
0080
0080
0080
0080
0080
0180
0180
0100
0300
0200
0600
0400
0C00
1800
1000
6000
8000
ENDCHAR

STARTCHAR asterisk
ENCODING 42
SWIDTH 420 0
DWIDTH 10 0
BBX 9 8 3 9
BITMAP
0800
0800
0C00
F380
3000
1E00
3600
2100
ENDCHAR

STARTCHAR plus
ENCODING 43
SWIDTH 520 0
DWIDTH 13 0
BBX 11 11 3 2
BITMAP
0400
0400
0400
0400
0400
FFE0
0400
0400
0400
0400
0400
ENDCHAR

STARTCHAR comma
ENCODING 44
SWIDTH 220 0
DWIDTH 5 0
BBX 4 7 0 -4
BITMAP
20
30
30
20
20
40
80
ENDCHAR

STARTCHAR minus
ENCODING 45
SWIDTH 600 0
DWIDTH 15 0
BBX 11 1 4 7
BITMAP
FFE0
ENDCHAR

STARTCHAR period
ENCODING 46
SWIDTH 220 0
DWIDTH 5 0
BBX 2 3 2 0
BITMAP
C0
C0
C0
ENDCHAR

STARTCHAR slash
ENCODING 47
SWIDTH 340 0
DWIDTH 9 0
BBX 13 22 0 -5
BITMAP
0008
0010
0030
0020
0060
0040
00C0
0080
0100
0100
0200
0600
0400
0C00
0800
1000
1000
2000
2000
4000
C000
8000
ENDCHAR

STARTCHAR zero
ENCODING 48
SWIDTH 440 0
DWIDTH 11 0
BBX 10 15 2 0
BITMAP
0F00
1980
30C0
20C0
60C0
60C0
E0C0
C0C0
C1C0
C180
C180
C100
C300
6600
3800
ENDCHAR

STARTCHAR one
ENCODING 49
SWIDTH 440 0
DWIDTH 11 0
BBX 8 16 3 0
BITMAP
01
03
0E
36
06
06
04
0C
0C
0C
08
18
18
18
38
CE
ENDCHAR

STARTCHAR two
ENCODING 50
SWIDTH 440 0
DWIDTH 11 0
BBX 10 15 2 -1
BITMAP
0F80
19C0
30C0
00C0
00C0
0180
0100
0200
0400
0800
1000
2080
4100
FF00
0100
ENDCHAR

STARTCHAR three
ENCODING 51
SWIDTH 440 0
DWIDTH 11 0
BBX 9 15 2 0
BITMAP
0F00
1180
1180
0100
0300
0600
0F00
1380
0180
0180
0180
0300
0200
CC00
7000
ENDCHAR

STARTCHAR four
ENCODING 52
SWIDTH 440 0
DWIDTH 11 0
BBX 10 15 2 0
BITMAP
0040
00C0
0180
0380
0580
0980
1100
2300
4300
4300
FF80
0600
0600
0600
0400
ENDCHAR

STARTCHAR five
ENCODING 53
SWIDTH 440 0
DWIDTH 11 0
BBX 11 15 2 0
BITMAP
03E0
07E0
0800
0800
0C00
0F00
0300
0180
0180
0180
0100
0100
0200
8C00
F000
ENDCHAR

STARTCHAR six
ENCODING 54
SWIDTH 440 0
DWIDTH 11 0
BBX 10 16 3 0
BITMAP
01C0
0600
1800
3000
3000
6000
6E00
E700
C300
C300
C300
C300
C300
C200
6400
3800
ENDCHAR

STARTCHAR seven
ENCODING 55
SWIDTH 440 0
DWIDTH 11 0
BBX 10 15 4 0
BITMAP
7FC0
7F80
4100
0200
0400
0400
0800
1000
3000
6000
4000
C000
C000
C000
8000
ENDCHAR

STARTCHAR eight
ENCODING 56
SWIDTH 440 0
DWIDTH 11 0
BBX 10 15 2 0
BITMAP
0380
0CC0
0840
1840
1880
0D00
0600
1B00
3300
6180
4180
C180
C100
6200
3C00
ENDCHAR

STARTCHAR nine
ENCODING 57
SWIDTH 440 0
DWIDTH 11 0
BBX 10 16 2 0
BITMAP
0700
1980
10C0
30C0
30C0
30C0
30C0
30C0
39C0
1F80
0180
0300
0200
0400
1800
E000
ENDCHAR

STARTCHAR colon
ENCODING 58
SWIDTH 260 0
DWIDTH 7 0
BBX 4 10 2 0
BITMAP
30
30
30
00
00
00
00
C0
C0
C0
ENDCHAR

STARTCHAR semicolon
ENCODING 59
SWIDTH 240 0
DWIDTH 6 0
BBX 6 14 0 -4
BITMAP
0C
0C
0C
00
00
00
00
00
30
30
30
20
40
80
ENDCHAR

STARTCHAR less
ENCODING 60
SWIDTH 520 0
DWIDTH 13 0
BBX 11 11 3 2
BITMAP
0020
00E0
0380
0E00
7800
C000
E000
3800
0E00
0380
00E0
ENDCHAR

STARTCHAR equal
ENCODING 61
SWIDTH 520 0
DWIDTH 13 0
BBX 11 5 3 5
BITMAP
FFE0
0000
0000
0000
FFE0
ENDCHAR

STARTCHAR greater
ENCODING 62
SWIDTH 520 0
DWIDTH 13 0
BBX 11 11 4 2
BITMAP
8000
E000
3800
0E00
0380
0060
00E0
0380
0E00
7000
C000
ENDCHAR

STARTCHAR question
ENCODING 63
SWIDTH 380 0
DWIDTH 9 0
BBX 8 15 2 0
BITMAP
1C
32
01
01
03
07
1E
3C
60
40
40
00
C0
C0
C0
ENDCHAR

STARTCHAR at
ENCODING 64
SWIDTH 700 0
DWIDTH 17 0
BBX 15 15 3 0
BITMAP
03F0
0418
181C
31E6
2266
6446
4846
C8C4
D8C8
D998
DEE0
C880
6030
30C0
1F00
ENDCHAR

STARTCHAR A
ENCODING 65
SWIDTH 620 0
DWIDTH 16 0
BBX 17 18 -1 -2
BITMAP
000100
007F00
008600
010A00
010E00
019600
002600
006600
004600
008600
00FC00
010C00
020C00
060C00
040C00
080F80
100000
E00000
ENDCHAR

STARTCHAR B
ENCODING 66
SWIDTH 600 0
DWIDTH 15 0
BBX 14 15 2 0
BITMAP
03F0
0C18
138C
218C
410C
4318
83A0
8378
831C
860C
660C
260C
0618
0C30
3FC0
ENDCHAR

STARTCHAR C
ENCODING 67
SWIDTH 520 0
DWIDTH 13 0
BBX 13 17 3 -2
BITMAP
01E0
0618
0818
1810
3010
6000
6000
E000
C000
C000
C000
C000
C000
E040
6040
3180
1E00
ENDCHAR

STARTCHAR D
ENCODING 68
SWIDTH 700 0
DWIDTH 17 0
BBX 17 15 2 0
BITMAP
03F800
0C0E00
13C700
218380
418180
410180
830180
830180
830180
C30380
660300
260600
060C00
0C1800
3FE000
ENDCHAR

STARTCHAR E
ENCODING 69
SWIDTH 620 0
DWIDTH 16 0
BBX 15 16 2 -1
BITMAP
0FFE
1304
2304
4300
4300
8200
8610
87F0
C610
4C00
0C00
0C00
0804
1804
7FC4
00F8
ENDCHAR

STARTCHAR F
ENCODING 70
SWIDTH 580 0
DWIDTH 15 0
BBX 15 15 3 0
BITMAP
0FFE
1304
2304
4300
8300
8610
87E0
C620
C600
0C00
0C00
0C00
0C00
1800
7F00
ENDCHAR

STARTCHAR G
ENCODING 71
SWIDTH 620 0
DWIDTH 16 0
BBX 14 21 3 -6
BITMAP
01F0
061C
1808
3008
7008
6000
E000
C000
C000
C1F0
C060
C060
6060
70C0
1FC0
00C0
0080
0180
2100
6200
3C00
ENDCHAR

STARTCHAR H
ENCODING 72
SWIDTH 680 0
DWIDTH 17 0
BBX 22 17 1 -1
BITMAP
000078
0000CC
0FC180
10C180
218300
218300
318300
010E00
03F600
030600
030600
020C00
060C00
040C00
0C0C00
C81F00
700000
ENDCHAR

STARTCHAR I
ENCODING 73
SWIDTH 380 0
DWIDTH 9 0
BBX 10 14 2 0
BITMAP
1FC0
0600
0600
0600
0400
0C00
0C00
0C00
1800
1800
1800
1800
3000
FC00
ENDCHAR

STARTCHAR J
ENCODING 74
SWIDTH 400 0
DWIDTH 10 0
BBX 13 18 0 -3
BITMAP
01F8
0630
0430
0860
0860
0C60
0040
00C0
00C0
00C0
0180
0180
0180
0300
0300
4200
E400
7800
ENDCHAR

STARTCHAR K
ENCODING 75
SWIDTH 660 0
DWIDTH 16 0
BBX 18 19 2 -4
BITMAP
1F0F80
230600
430800
821000
C62000
C6C000
070000
0D8000
0CC000
0CC000
0C4000
186000
186000
182000
7E3000
003000
0018C0
000CC0
000700
ENDCHAR

STARTCHAR L
ENCODING 76
SWIDTH 580 0
DWIDTH 15 0
BBX 13 15 2 -1
BITMAP
00F0
0110
0200
0600
0C00
0C00
0C00
0800
1800
1800
1800
3008
2008
FF88
03F0
ENDCHAR

STARTCHAR M
ENCODING 77
SWIDTH 840 0
DWIDTH 21 0
BBX 20 16 2 0
BITMAP
000010
0FC010
10C030
20C060
40C0E0
416160
416340
6162C0
2164C0
026CC0
026880
027180
047180
086180
982300
E023E0
ENDCHAR

STARTCHAR N
ENCODING 78
SWIDTH 700 0
DWIDTH 17 0
BBX 22 16 1 -1
BITMAP
01C03C
0EC048
10E080
20E080
20A080
213100
313100
113100
011900
011A00
021A00
020C00
060C00
040400
C80400
700400
ENDCHAR

STARTCHAR O
ENCODING 79
SWIDTH 600 0
DWIDTH 15 0
BBX 14 15 2 0
BITMAP
07E0
0830
1018
201C
600C
600C
C00C
C00C
C00C
C018
C018
E010
6020
38C0
1F00
ENDCHAR

STARTCHAR P
ENCODING 80
SWIDTH 540 0
DWIDTH 14 0
BBX 15 15 2 0
BITMAP
03F8
0C0C
1386
2186
4186
4306
830C
8318
83E0
8600
4600
2600
0C00
0C00
3FC0
ENDCHAR

STARTCHAR Q
ENCODING 81
SWIDTH 600 0
DWIDTH 15 0
BBX 18 21 2 -6
BITMAP
07E000
083000
101800
201C00
600C00
600C00
C00C00
C00C00
C00C00
C01800
C01800
E03000
602000
38C000
1F0000
070000
038000
00C000
006040
0038C0
000F00
ENDCHAR

STARTCHAR R
ENCODING 82
SWIDTH 600 0
DWIDTH 15 0
BBX 19 19 2 -4
BITMAP
07F000
081800
370C00
430C00
430C00
861800
863000
87C000
C6C000
6CC000
0CC000
0C6000
0C6000
182000
7F3000
001000
001860
000C40
000380
ENDCHAR

STARTCHAR S
ENCODING 83
SWIDTH 460 0
DWIDTH 11 0
BBX 12 17 1 -2
BITMAP
01F0
0230
0410
0C10
0C10
0C00
0600
0700
0380
01C0
00C0
00C0
00C0
C080
C180
C300
3C00
ENDCHAR

STARTCHAR T
ENCODING 84
SWIDTH 500 0
DWIDTH 13 0
BBX 17 17 2 0
BITMAP
000180
000180
0FFE00
304000
40C000
40C000
80C000
818000
C18000
C18000
018000
030000
030000
030000
030000
060000
1FC000
ENDCHAR

STARTCHAR U
ENCODING 85
SWIDTH 740 0
DWIDTH 18 0
BBX 17 18 3 0
BITMAP
000100
000180
000180
1F0080
230080
460080
860080
CC0080
CC0100
0C0100
180100
180200
180200
180400
1C0800
1C3000
0FE000
078000
ENDCHAR

STARTCHAR V
ENCODING 86
SWIDTH 640 0
DWIDTH 16 0
BBX 17 18 3 -1
BITMAP
000180
000080
000080
1F8080
230180
430100
820300
860200
C60400
860800
061000
062000
064000
068000
070000
070000
020000
020000
ENDCHAR

STARTCHAR W
ENCODING 87
SWIDTH 880 0
DWIDTH 22 0
BBX 23 18 2 -1
BITMAP
000006
000002
078102
1B0202
260606
460E04
8C160C
8C1608
CC2610
4C4610
0C4620
0C8640
0D0480
0D0580
0E0500
0C0600
040400
000400
ENDCHAR

STARTCHAR X
ENCODING 88
SWIDTH 560 0
DWIDTH 14 0
BBX 19 17 0 -1
BITMAP
0001E0
03C300
00C600
00CC00
00C800
00D000
006000
006000
006000
00A000
013000
033000
023000
043000
083000
303C00
E00000
ENDCHAR

STARTCHAR Y
ENCODING 89
SWIDTH 560 0
DWIDTH 14 0
BBX 18 17 2 0
BITMAP
0000C0
000380
0E0600
330C00
430800
419000
81A000
81A000
C0C000
41C000
018000
018000
018000
010000
030000
030000
0FE000
ENDCHAR

STARTCHAR Z
ENCODING 90
SWIDTH 620 0
DWIDTH 16 0
BBX 16 16 1 0
BITMAP
0001
07FE
087C
0808
0C10
0020
0040
0080
0100
0200
0600
0C00
1806
3002
6F82
FFFC
ENDCHAR

STARTCHAR bracketleft
ENCODING 91
SWIDTH 240 0
DWIDTH 6 0
BBX 8 21 2 -4
BITMAP
0F
08
08
08
18
18
10
10
30
30
20
20
60
60
40
40
40
C0
C0
80
E0
ENDCHAR

STARTCHAR backslash
ENCODING 92
SWIDTH 480 0
DWIDTH 12 0
BBX 7 22 5 -5
BITMAP
C0
40
40
40
60
20
20
20
30
10
10
10
18
08
08
08
0C
0C
04
04
06
06
ENDCHAR

STARTCHAR bracketright
ENCODING 93
SWIDTH 320 0
DWIDTH 8 0
BBX 8 21 1 -4
BITMAP
0F
01
03
03
02
02
06
06
04
04
04
0C
08
08
08
18
18
10
10
30
F0
ENDCHAR

STARTCHAR asciicircum
ENCODING 94
SWIDTH 520 0
DWIDTH 13 0
BBX 6 4 6 11
BITMAP
30
38
68
CC
ENDCHAR

STARTCHAR underscore
ENCODING 95
SWIDTH 500 0
DWIDTH 13 0
BBX 13 1 0 -3
BITMAP
FFF8
ENDCHAR

STARTCHAR quoteleft
ENCODING 96
SWIDTH 240 0
DWIDTH 6 0
BBX 3 6 5 11
BITMAP
20
60
40
C0
C0
40
ENDCHAR

STARTCHAR a
ENCODING 97
SWIDTH 420 0
DWIDTH 10 0
BBX 10 11 2 0
BITMAP
0040
0F80
1180
2100
2100
4300
C300
C700
CE40
F780
6200
ENDCHAR

STARTCHAR b
ENCODING 98
SWIDTH 420 0
DWIDTH 10 0
BBX 10 18 3 0
BITMAP
03C0
0780
0800
1800
1000
3000
3000
3700
2F80
7180
6180
6180
4180
C300
C300
C600
CC00
7000
ENDCHAR

STARTCHAR c
ENCODING 99
SWIDTH 340 0
DWIDTH 9 0
BBX 8 10 2 0
BITMAP
0F
13
20
60
40
C0
C0
C2
E4
78
ENDCHAR

STARTCHAR d
ENCODING 100
SWIDTH 440 0
DWIDTH 11 0
BBX 15 17 2 0
BITMAP
000E
003E
0040
0040
00C0
00C0
0180
0F80
1180
2180
2100
4300
4300
C300
CE40
F780
6200
ENDCHAR

STARTCHAR e
ENCODING 101
SWIDTH 340 0
DWIDTH 9 0
BBX 8 10 2 0
BITMAP
0F
13
23
66
58
E0
C0
C6
F8
60
ENDCHAR

STARTCHAR f
ENCODING 102
SWIDTH 320 0
DWIDTH 8 0
BBX 18 24 -4 -6
BITMAP
0003C0
0007C0
000800
001000
001000
003000
003000
002000
03FE00
006000
006000
004000
00C000
00C000
00C000
008000
018000
018000
018000
010000
030000
020000
FC0000
700000
ENDCHAR

STARTCHAR g
ENCODING 103
SWIDTH 400 0
DWIDTH 10 0
BBX 12 17 0 -6
BITMAP
0030
01E0
0660
0860
08C0
10C0
10C0
3080
3080
3F80
0980
3180
4180
8180
8300
C600
7C00
ENDCHAR

STARTCHAR h
ENCODING 104
SWIDTH 440 0
DWIDTH 11 0
BBX 10 17 2 0
BITMAP
03C0
0780
0800
1800
1800
1000
3000
3180
3780
2980
7100
6300
6300
4200
C640
C780
0600
ENDCHAR

STARTCHAR i
ENCODING 105
SWIDTH 240 0
DWIDTH 6 0
BBX 6 15 2 0
BITMAP
0C
0C
00
00
00
38
D0
50
30
30
20
20
68
78
60
ENDCHAR

STARTCHAR j
ENCODING 106
SWIDTH 220 0
DWIDTH 5 0
BBX 11 22 -3 -6
BITMAP
0060
0060
0000
0000
0000
00C0
0380
0580
0180
0180
0100
0300
0300
0300
0200
0600
0600
0400
0400
0800
C800
F000
ENDCHAR

STARTCHAR k
ENCODING 107
SWIDTH 440 0
DWIDTH 11 0
BBX 14 22 2 -5
BITMAP
0380
0780
0800
1800
1000
3000
3000
3780
2980
7180
6300
7C00
5800
CC00
C400
C600
8600
0300
0304
0184
00C4
0078
ENDCHAR

STARTCHAR l
ENCODING 108
SWIDTH 240 0
DWIDTH 6 0
BBX 10 17 2 0
BITMAP
01C0
07C0
0800
0800
1800
1800
1000
3000
3000
3000
2000
6000
6000
6000
4400
D800
6000
ENDCHAR

STARTCHAR m
ENCODING 109
SWIDTH 620 0
DWIDTH 16 0
BBX 15 10 2 0
BITMAP
118C
77BC
B9CC
3188
3118
2318
6310
6230
C63E
0030
ENDCHAR

STARTCHAR n
ENCODING 110
SWIDTH 460 0
DWIDTH 11 0
BBX 11 10 2 0
BITMAP
18C0
7BC0
94C0
3880
3180
3180
6300
6360
6380
0100
ENDCHAR

STARTCHAR o
ENCODING 111
SWIDTH 400 0
DWIDTH 10 0
BBX 9 10 2 0
BITMAP
0F00
3380
2180
6180
C180
C180
C100
C300
E600
7800
ENDCHAR

STARTCHAR p
ENCODING 112
SWIDTH 440 0
DWIDTH 11 0
BBX 13 16 -1 -6
BITMAP
0630
0EF8
1718
0618
0618
0C10
0C30
0C20
0C40
1F80
1800
1800
1000
3000
3000
FE00
ENDCHAR

STARTCHAR q
ENCODING 113
SWIDTH 400 0
DWIDTH 10 0
BBX 10 18 2 -6
BITMAP
0040
07C0
1980
3180
2180
6180
4100
C300
C700
CB00
F200
6600
0600
0600
0400
0C00
0C00
3F00
ENDCHAR

STARTCHAR r
ENCODING 114
SWIDTH 300 0
DWIDTH 8 0
BBX 9 11 2 0
BITMAP
0180
3B80
5400
B800
3000
3000
2000
6000
6000
6000
4000
ENDCHAR

STARTCHAR s
ENCODING 115
SWIDTH 320 0
DWIDTH 8 0
BBX 8 10 2 0
BITMAP
0F
13
30
18
1C
0C
06
C6
C4
78
ENDCHAR

STARTCHAR t
ENCODING 116
SWIDTH 320 0
DWIDTH 8 0
BBX 6 13 3 0
BITMAP
18
30
30
FC
20
60
60
60
40
C4
C8
F0
C0
ENDCHAR

STARTCHAR u
ENCODING 117
SWIDTH 460 0
DWIDTH 11 0
BBX 11 11 2 -1
BITMAP
1000
78C0
98C0
1080
3180
3180
2180
6300
6760
7B80
6100
ENDCHAR

STARTCHAR v
ENCODING 118
SWIDTH 440 0
DWIDTH 11 0
BBX 11 12 2 -1
BITMAP
0020
7E60
8820
9820
B020
3040
3040
3080
3100
1600
1800
1000
ENDCHAR

STARTCHAR w
ENCODING 119
SWIDTH 680 0
DWIDTH 17 0
BBX 16 11 2 -1
BITMAP
3C63
C8E1
98C1
90C1
30C2
30C2
31C4
33C8
14D0
18E0
1040
ENDCHAR

STARTCHAR x
ENCODING 120
SWIDTH 420 0
DWIDTH 10 0
BBX 14 15 1 -4
BITMAP
0030
1C70
2C80
0700
0600
0600
0600
0A00
1300
A300
C100
0180
0180
00CC
0038
ENDCHAR

STARTCHAR y
ENCODING 121
SWIDTH 400 0
DWIDTH 10 0
BBX 12 16 -1 -6
BITMAP
0610
0E10
1310
0110
0190
0190
01A0
00A0
00C0
00C0
0080
0100
0100
0200
FC00
7000
ENDCHAR

STARTCHAR z
ENCODING 122
SWIDTH 440 0
DWIDTH 11 0
BBX 11 11 1 0
BITMAP
0020
1FC0
1080
1900
0200
0400
0800
1040
6040
FC40
9F80
ENDCHAR

STARTCHAR braceleft
ENCODING 123
SWIDTH 240 0
DWIDTH 6 0
BBX 9 21 2 -4
BITMAP
0380
0400
0C00
0800
0800
1800
1800
1000
1000
3000
E000
6000
6000
6000
6000
4000
C000
C000
C000
C000
F000
ENDCHAR

STARTCHAR bar
ENCODING 124
SWIDTH 520 0
DWIDTH 13 0
BBX 1 23 8 -6
BITMAP
80
80
80
80
80
80
80
80
80
80
80
80
80
80
80
80
80
80
80
80
80
80
80
ENDCHAR

STARTCHAR braceright
ENCODING 125
SWIDTH 240 0
DWIDTH 6 0
BBX 9 21 -2 -4
BITMAP
0700
0180
0080
0180
0180
0180
0300
0300
0300
0200
0180
0200
0400
0400
0C00
0C00
0800
0800
1800
1800
F000
ENDCHAR

STARTCHAR asciitilde
ENCODING 126
SWIDTH 520 0
DWIDTH 13 0
BBX 11 4 3 5
BITMAP
0020
3C60
E3C0
4000
ENDCHAR

STARTCHAR space
ENCODING 160
SWIDTH 220 0
DWIDTH 6 0
BBX 0 0 0 0
BITMAP
ENDCHAR

STARTCHAR Aogonek
ENCODING 161
SWIDTH 620 0
DWIDTH 16 0
BBX 17 20 -1 -4
BITMAP
000100
007F00
008700
010700
010B00
019300
003200
002600
004600
008600
00FE00
010600
020600
060600
040C00
080F80
101000
E01000
001800
001C00
ENDCHAR

STARTCHAR afii240
ENCODING 162
SWIDTH 444 0
DWIDTH 11 0
BBX 14 11 -2 0
BITMAP
1FBC
0620
0640
0C80
0D80
0F80
0980
18C0
18C0
38E0
FDF8
ENDCHAR

STARTCHAR Rcommaaccent
ENCODING 163
SWIDTH 600 0
DWIDTH 15 0
BBX 18 22 3 -7
BITMAP
07E000
183000
271800
421800
461800
863000
866000
878000
8D8000
4C8000
0CC000
08C000
18C000
186000
7E6000
002000
0210C0
061880
020700
020000
040000
080000
ENDCHAR

STARTCHAR currency
ENCODING 164
SWIDTH 600 0
DWIDTH 15 0
BBX 10 10 5 2
BITMAP
BF40
7180
C0C0
C040
8040
8040
C0C0
40C0
F3C0
BF40
ENDCHAR

STARTCHAR Itilde
ENCODING 165
SWIDTH 380 0
DWIDTH 9 0
BBX 11 19 2 0
BITMAP
07A0
09C0
0000
0000
0000
1FC0
0600
0600
0600
0400
0C00
0C00
0C00
1800
1800
1800
1800
3000
FC00
ENDCHAR

STARTCHAR Lcommaaccent
ENCODING 166
SWIDTH 580 0
DWIDTH 15 0
BBX 13 21 2 -7
BITMAP
00F0
0130
0200
0600
0C00
0C00
0C00
0800
1800
1800
1800
3008
2008
FF88
03F0
0200
0600
0200
0400
0400
0800
ENDCHAR

STARTCHAR section
ENCODING 167
SWIDTH 420 0
DWIDTH 10 0
BBX 14 22 0 -5
BITMAP
0078
008C
0184
0280
0280
0480
0480
04C0
0440
0440
0440
0440
0640
0240
0240
0240
0240
0280
0280
8300
C600
7800
ENDCHAR

STARTCHAR hungarumlaut
ENCODING 168
SWIDTH 400 0
DWIDTH 10 0
BBX 9 4 2 11
BITMAP
3F80
6600
4C00
8800
ENDCHAR

STARTCHAR Scaron
ENCODING 169
SWIDTH 460 0
DWIDTH 11 0
BBX 13 22 1 -2
BITMAP
0198
00B0
00E0
0000
0000
01F0
0230
0410
0C10
0C10
0C00
0600
0700
0380
0180
00C0
00C0
00C0
C080
C180
C300
3C00
ENDCHAR

STARTCHAR Emacron
ENCODING 170
SWIDTH 620 0
DWIDTH 16 0
BBX 15 18 2 0
BITMAP
00FC
0000
0000
0FFE
1304
6304
4300
8200
8610
87F0
C610
C400
0C00
0C00
0804
1804
3FCC
40F0
ENDCHAR

STARTCHAR Gcommaaccent
ENCODING 171
SWIDTH 620 0
DWIDTH 16 0
BBX 14 21 3 -6
BITMAP
03F8
0E0C
1808
3008
7008
6000
E000
C000
C000
C1F8
C060
E060
6060
70E0
1FC0
0000
0C00
0C00
0400
0800
1000
ENDCHAR

STARTCHAR afii237
ENCODING 172
SWIDTH 556 0
DWIDTH 14 0
BBX 15 17 1 0
BITMAP
1FFE
31C6
2182
2182
0180
0300
0300
FFF8
0600
0600
0600
0E00
0C00
0C00
0C00
1C00
7F00
ENDCHAR

STARTCHAR hyphen
ENCODING 173
SWIDTH 280 0
DWIDTH 7 0
BBX 6 1 2 5
BITMAP
FC
ENDCHAR

STARTCHAR Zcaron
ENCODING 174
SWIDTH 620 0
DWIDTH 16 0
BBX 16 21 1 0
BITMAP
0023
0026
003C
0038
0000
0001
07FE
087C
0C08
0C10
0020
0040
0080
0100
0200
0600
0C00
1806
3002
6F82
FFFC
ENDCHAR

STARTCHAR macron
ENCODING 175
SWIDTH 440 0
DWIDTH 11 0
BBX 6 1 6 12
BITMAP
FC
ENDCHAR

STARTCHAR degree
ENCODING 176
SWIDTH 400 0
DWIDTH 10 0
BBX 6 6 5 9
BITMAP
78
CC
84
84
CC
78
ENDCHAR

STARTCHAR aogonek
ENCODING 177
SWIDTH 420 0
DWIDTH 10 0
BBX 10 16 2 -5
BITMAP
0040
07C0
1880
1180
2180
6100
4300
C300
C740
CB40
F380
4300
0200
0200
0300
0380
ENDCHAR

STARTCHAR ogonek
ENCODING 178
SWIDTH 280 0
DWIDTH 7 0
BBX 3 5 2 -5
BITMAP
40
80
80
C0
E0
ENDCHAR

STARTCHAR rcommaaccent
ENCODING 179
SWIDTH 300 0
DWIDTH 8 0
BBX 9 17 1 -6
BITMAP
0980
3B80
5A00
1C00
1800
1000
3000
3000
3000
2000
6000
0000
6000
2000
2000
4000
8000
ENDCHAR

STARTCHAR acute
ENCODING 180
SWIDTH 300 0
DWIDTH 8 0
BBX 5 3 6 12
BITMAP
38
40
80
ENDCHAR

STARTCHAR itilde
ENCODING 181
SWIDTH 240 0
DWIDTH 6 0
BBX 9 15 2 0
BITMAP
3D80
6F00
0000
0000
0800
3800
D800
1000
3000
3000
3000
2000
6400
6800
7000
ENDCHAR

STARTCHAR lcommaaccent
ENCODING 182
SWIDTH 240 0
DWIDTH 6 0
BBX 11 24 1 -7
BITMAP
00E0
03C0
0400
0C00
0C00
0800
1800
1800
1800
1000
3000
3000
3000
2000
6400
6400
7800
6000
0000
6000
2000
2000
4000
8000
ENDCHAR

STARTCHAR caron
ENCODING 183
SWIDTH 340 0
DWIDTH 9 0
BBX 6 3 6 12
BITMAP
8C
F0
60
ENDCHAR

STARTCHAR commaaccent
ENCODING 184
SWIDTH 333 0
DWIDTH 8 0
BBX 3 5 2 -6
BITMAP
20
60
20
40
C0
ENDCHAR

STARTCHAR scaron
ENCODING 185
SWIDTH 320 0
DWIDTH 8 0
BBX 10 15 2 0
BITMAP
0840
0D80
0700
0600
0000
0F00
1300
3000
3800
1C00
0C00
0600
C600
C400
7800
ENDCHAR

STARTCHAR emacron
ENCODING 186
SWIDTH 340 0
DWIDTH 9 0
BBX 9 13 2 0
BITMAP
1F80
0000
0000
0F00
3300
2300
6600
5800
E000
C000
C600
F800
6000
ENDCHAR

STARTCHAR gcommaaccent
ENCODING 187
SWIDTH 400 0
DWIDTH 10 0
BBX 12 22 0 -6
BITMAP
0020
0040
0080
00C0
0080
0010
01E0
0660
0860
0840
10C0
10C0
30C0
3180
3E80
0880
3180
4180
8180
8300
C700
3C00
ENDCHAR

STARTCHAR afii253
ENCODING 188
SWIDTH 278 0
DWIDTH 7 0
BBX 6 14 1 0
BITMAP
0C
08
18
7C
30
30
FC
60
60
60
C0
C8
F0
40
ENDCHAR

STARTCHAR afii238
ENCODING 189
SWIDTH 685 0
DWIDTH 17 0
BBX 18 17 -1 0
BITMAP
078F00
01B380
01C180
0341C0
0381C0
0301C0
0701C0
0601C0
0601C0
060180
0C0180
0C6380
0CE300
1CE200
188600
188C00
FE7000
ENDCHAR

STARTCHAR zcaron
ENCODING 190
SWIDTH 440 0
DWIDTH 11 0
BBX 12 15 1 0
BITMAP
0210
0260
01C0
0180
0000
0F60
12C0
1900
0200
0400
0800
1040
2040
7C40
8F80
ENDCHAR

STARTCHAR afii254
ENCODING 191
SWIDTH 482 0
DWIDTH 12 0
BBX 11 16 0 -5
BITMAP
78E0
1B60
3460
3460
38C0
30C0
60C0
6180
6180
C180
C300
0300
0300
0600
6400
3800
ENDCHAR

STARTCHAR Amacron
ENCODING 192
SWIDTH 620 0
DWIDTH 16 0
BBX 18 20 -1 -2
BITMAP
001FC0
000000
000100
007F00
008700
010E00
010A00
019600
002600
002600
004600
008600
01FC00
010C00
020C00
060C00
040C00
080F80
100000
E00000
ENDCHAR

STARTCHAR Aacute
ENCODING 193
SWIDTH 620 0
DWIDTH 16 0
BBX 18 23 -1 -2
BITMAP
0001C0
000100
000200
000400
000000
000100
007F00
008600
010A00
011A00
019600
002600
004600
004600
008600
01FC00
010C00
020C00
060C00
040C00
080F80
100000
E00000
ENDCHAR

STARTCHAR Acircumflex
ENCODING 194
SWIDTH 620 0
DWIDTH 16 0
BBX 17 23 -1 -2
BITMAP
000380
000780
000C80
001080
000000
000100
007F00
008600
010A00
011A00
019600
002600
004600
004600
008600
01FC00
010C00
020C00
060C00
040C00
080F80
100000
E00000
ENDCHAR

STARTCHAR Atilde
ENCODING 195
SWIDTH 620 0
DWIDTH 16 0
BBX 19 22 -1 -2
BITMAP
000F60
000BC0
000000
000000
000100
007F00
008600
010A00
011A00
019600
002600
004600
004600
008600
01FC00
010C00
020C00
060C00
040C00
080F80
100000
E00000
ENDCHAR

STARTCHAR Adieresis
ENCODING 196
SWIDTH 620 0
DWIDTH 16 0
BBX 18 21 -1 -2
BITMAP
000CC0
000CC0
000000
000100
007F00
008700
010A00
011E00
011600
002600
004600
004600
008600
01FC00
010C00
020C00
060C00
040C00
081F80
100000
E00000
ENDCHAR

STARTCHAR Aring
ENCODING 197
SWIDTH 620 0
DWIDTH 16 0
BBX 17 23 -1 -2
BITMAP
000300
000480
000480
000300
000000
000700
007B00
008600
010A00
010A00
019200
002600
002600
004600
008600
01FE00
010400
020400
060C00
040C00
080F00
100000
E00000
ENDCHAR

STARTCHAR AE
ENCODING 198
SWIDTH 740 0
DWIDTH 18 0
BBX 20 17 0 -2
BITMAP
003FF0
001610
002C10
002C00
004C00
004C00
009840
011F80
011880
03F800
023000
043030
083010
083010
10FFE0
200000
C00000
ENDCHAR

STARTCHAR Iogonek
ENCODING 199
SWIDTH 380 0
DWIDTH 9 0
BBX 10 19 1 -5
BITMAP
0FC0
0300
0300
0600
0600
0600
0400
0C00
0C00
0C00
0C00
1800
1800
7C00
9200
2000
2000
3000
3800
ENDCHAR

STARTCHAR Ccaron
ENCODING 200
SWIDTH 520 0
DWIDTH 13 0
BBX 14 22 3 -2
BITMAP
008C
00F0
0060
0000
0000
01E0
0618
0810
1810
3010
6000
6000
E000
C000
C000
C000
C000
C000
E020
6040
3180
1E00
ENDCHAR

STARTCHAR Eacute
ENCODING 201
SWIDTH 620 0
DWIDTH 16 0
BBX 15 21 2 0
BITMAP
001C
0018
0020
0040
0000
0000
0FFE
1304
6304
4300
8200
8610
87F0
C610
C400
0C00
0C00
0804
1804
3FCC
40F0
ENDCHAR

STARTCHAR Eogonek
ENCODING 202
SWIDTH 620 0
DWIDTH 16 0
BBX 15 19 2 -4
BITMAP
0FFE
1304
6304
4300
8200
8610
87F0
C610
C400
0C00
0C00
0804
1804
3FCC
40F8
0010
0010
0018
001E
ENDCHAR

STARTCHAR Edieresis
ENCODING 203
SWIDTH 620 0
DWIDTH 16 0
BBX 15 19 1 0
BITMAP
006C
006C
0000
0000
0FFE
1182
2182
4300
8300
8310
87F0
C610
C600
0600
0C00
0C06
0806
3FC4
4078
ENDCHAR

STARTCHAR Edotaccent
ENCODING 204
SWIDTH 620 0
DWIDTH 16 0
BBX 15 20 2 0
BITMAP
0030
0030
0010
0000
0000
0FFE
1304
6304
4300
8200
8610
87F0
C610
C400
0C00
0C00
0804
1804
3FCC
40F0
ENDCHAR

STARTCHAR Iacute
ENCODING 205
SWIDTH 380 0
DWIDTH 9 0
BBX 12 20 2 0
BITMAP
0070
00C0
0100
0000
0000
0000
1FC0
0600
0600
0600
0400
0C00
0C00
0C00
1800
1800
1800
1800
3000
FC00
ENDCHAR

STARTCHAR Icircumflex
ENCODING 206
SWIDTH 380 0
DWIDTH 9 0
BBX 10 20 2 0
BITMAP
01C0
03C0
0C40
0000
0000
0000
1FC0
0600
0600
0600
0400
0C00
0C00
0C00
1800
1800
1800
1800
3000
FC00
ENDCHAR

STARTCHAR Imacron
ENCODING 207
SWIDTH 380 0
DWIDTH 9 0
BBX 11 18 2 0
BITMAP
07E0
0000
0000
1FC0
0600
0600
0600
0400
0C00
0C00
0C00
0800
1800
1800
1800
1800
3000
FC00
ENDCHAR

STARTCHAR Eth
ENCODING 208
SWIDTH 700 0
DWIDTH 17 0
BBX 17 15 2 0
BITMAP
03F800
0C0E00
13C700
218380
418180
410180
830180
9FF180
830180
C30300
660300
260600
060C00
0C1800
3FE000
ENDCHAR

STARTCHAR Ncommaaccent
ENCODING 209
SWIDTH 700 0
DWIDTH 17 0
BBX 21 21 1 -6
BITMAP
01C078
0EC0C8
10C080
20E100
216100
216100
312100
113200
013200
021A00
021A00
021C00
040C00
040C00
C80400
700400
018000
008000
008000
010000
020000
ENDCHAR

STARTCHAR Omacron
ENCODING 210
SWIDTH 600 0
DWIDTH 15 0
BBX 14 18 2 0
BITMAP
01F8
0000
0000
07E0
0830
1018
201C
600C
600C
C00C
C00C
C00C
C018
E018
E010
6020
38C0
1F00
ENDCHAR

STARTCHAR Kcommaaccent
ENCODING 211
SWIDTH 660 0
DWIDTH 16 0
BBX 18 22 2 -7
BITMAP
1F1F00
230400
460800
861000
866000
C48000
0F0000
0D8000
0D8000
08C000
18C000
18C000
186000
386000
FC2000
003000
0210C0
061880
020700
040000
040000
080000
ENDCHAR

STARTCHAR Ocircumflex
ENCODING 212
SWIDTH 600 0
DWIDTH 15 0
BBX 14 21 2 0
BITMAP
0060
00F0
0190
0310
0000
0000
07E0
0830
1018
201C
600C
600C
C00C
C00C
C00C
C018
E018
E010
6020
38C0
1F00
ENDCHAR

STARTCHAR Otilde
ENCODING 213
SWIDTH 600 0
DWIDTH 15 0
BBX 14 20 2 0
BITMAP
01E8
0378
0000
0000
0000
07E0
0830
1018
201C
600C
600C
C00C
C00C
C00C
C018
E018
E010
6020
38C0
1F00
ENDCHAR

STARTCHAR Odieresis
ENCODING 214
SWIDTH 600 0
DWIDTH 15 0
BBX 13 19 3 0
BITMAP
0330
0330
0000
0000
07C0
1860
3030
2038
6018
4018
C018
C018
C018
C030
C030
E020
6040
3180
1E00
ENDCHAR

STARTCHAR multiply
ENCODING 215
SWIDTH 520 0
DWIDTH 13 0
BBX 9 9 4 3
BITMAP
4080
C180
6300
3600
0C00
1C00
3600
6300
C180
ENDCHAR

STARTCHAR Oslash
ENCODING 216
SWIDTH 660 0
DWIDTH 16 0
BBX 14 17 3 -1
BITMAP
0004
07E8
0830
1038
205C
604C
608C
C10C
C20C
C40C
C418
C818
F010
6020
70C0
5F00
8000
ENDCHAR

STARTCHAR Uogonek
ENCODING 217
SWIDTH 740 0
DWIDTH 18 0
BBX 17 22 3 -4
BITMAP
000100
000180
000180
1F0080
630080
460080
860080
CC0080
8C0100
0C0100
180100
180200
180200
180400
1C0800
1C1000
0FE000
018000
020000
020000
030000
03C000
ENDCHAR

STARTCHAR Uacute
ENCODING 218
SWIDTH 740 0
DWIDTH 18 0
BBX 17 21 3 0
BITMAP
000600
000C00
001800
003100
000180
000180
1F0080
230080
460080
860080
CC0080
CC0100
0C0100
180100
180200
180200
180400
180800
0C3000
0FE000
038000
ENDCHAR

STARTCHAR Ucircumflex
ENCODING 219
SWIDTH 740 0
DWIDTH 18 0
BBX 17 21 3 0
BITMAP
000C00
001C00
002400
004300
000180
000180
1F0080
230080
460080
860080
CC0080
CC0100
0C0100
180100
180200
180200
180400
180800
0C3000
0FE000
038000
ENDCHAR

STARTCHAR Udieresis
ENCODING 220
SWIDTH 740 0
DWIDTH 18 0
BBX 17 19 3 0
BITMAP
006600
006680
000180
000180
1F0080
220080
460080
860080
C40080
CC0100
080100
180100
180200
180600
180400
180800
1C3000
0FE000
078000
ENDCHAR

STARTCHAR Utilde
ENCODING 221
SWIDTH 740 0
DWIDTH 18 0
BBX 17 20 3 0
BITMAP
007A00
009C00
000100
000180
000180
1F0080
230080
460080
860080
CC0080
CC0100
0C0100
180100
180200
180200
180400
1C0800
1C3000
0FE000
078000
ENDCHAR

STARTCHAR Umacron
ENCODING 222
SWIDTH 740 0
DWIDTH 18 0
BBX 17 18 3 0
BITMAP
00FF00
000180
000180
1F0080
230080
460080
860080
CC0080
CC0100
0C0100
180100
180200
180200
180400
180800
0C3000
0FE000
038000
ENDCHAR

STARTCHAR germandbls
ENCODING 223
SWIDTH 420 0
DWIDTH 10 0
BBX 17 24 -4 -6
BITMAP
000F00
001980
001080
003180
003180
006100
006200
006400
004400
00CC00
00CC00
00C600
00C600
018200
018200
01B200
01B400
031800
030000
020000
020000
040000
F80000
E00000
ENDCHAR

STARTCHAR amacron
ENCODING 224
SWIDTH 420 0
DWIDTH 10 0
BBX 11 13 2 0
BITMAP
0FE0
0000
0040
0780
1980
2180
2100
4300
C300
C600
CE40
F780
6200
ENDCHAR

STARTCHAR aacute
ENCODING 225
SWIDTH 420 0
DWIDTH 10 0
BBX 11 15 2 0
BITMAP
00E0
0180
0200
0000
0040
0780
1980
2180
2100
4300
C300
C600
CE40
F780
6200
ENDCHAR

STARTCHAR acircumflex
ENCODING 226
SWIDTH 420 0
DWIDTH 10 0
BBX 11 15 2 0
BITMAP
00E0
0120
0620
0000
0040
0780
1980
2180
2100
4300
C300
C600
CE40
F780
6200
ENDCHAR

STARTCHAR atilde
ENCODING 227
SWIDTH 420 0
DWIDTH 10 0
BBX 12 15 2 0
BITMAP
03D0
06F0
0000
0000
0040
0780
1980
2180
2100
4300
C300
C600
CE40
F780
6200
ENDCHAR

STARTCHAR adieresis
ENCODING 228
SWIDTH 420 0
DWIDTH 10 0
BBX 12 14 2 0
BITMAP
0330
0330
0000
0040
0780
1980
2180
2300
4300
C300
C700
CE40
F780
6200
ENDCHAR

STARTCHAR aring
ENCODING 229
SWIDTH 420 0
DWIDTH 10 0
BBX 10 16 2 0
BITMAP
0180
0240
0240
0180
0000
0040
0780
0880
3180
2180
6100
4300
C300
C740
FB80
6200
ENDCHAR

STARTCHAR ae
ENCODING 230
SWIDTH 540 0
DWIDTH 14 0
BBX 13 11 2 0
BITMAP
0080
0FF8
1198
2198
6330
43C0
C300
C600
CB30
F3E0
6380
ENDCHAR

STARTCHAR iogonek
ENCODING 231
SWIDTH 240 0
DWIDTH 6 0
BBX 6 20 2 -5
BITMAP
0C
0C
00
00
00
38
D8
58
30
30
30
20
64
68
70
20
40
40
60
78
ENDCHAR

STARTCHAR ccaron
ENCODING 232
SWIDTH 340 0
DWIDTH 9 0
BBX 10 15 2 0
BITMAP
08C0
0580
0700
0000
0000
0F00
1300
2000
6000
4000
C000
C000
C200
E400
7800
ENDCHAR

STARTCHAR eacute
ENCODING 233
SWIDTH 340 0
DWIDTH 9 0
BBX 9 15 2 0
BITMAP
0180
0300
0400
0800
0000
0F00
1300
2300
6600
5800
E000
C000
C600
F800
6000
ENDCHAR

STARTCHAR eogonek
ENCODING 234
SWIDTH 340 0
DWIDTH 9 0
BBX 8 14 2 -4
BITMAP
0F
13
23
66
58
E0
C0
C6
F8
20
40
40
60
78
ENDCHAR

STARTCHAR edieresis
ENCODING 235
SWIDTH 340 0
DWIDTH 9 0
BBX 10 14 2 0
BITMAP
0CC0
0CC0
0000
0000
0F00
1300
2300
6600
5800
E000
C000
C600
F800
6000
ENDCHAR

STARTCHAR edotaccent
ENCODING 236
SWIDTH 340 0
DWIDTH 9 0
BBX 8 15 2 0
BITMAP
06
06
02
00
00
0F
33
23
66
58
E0
C0
C6
F8
60
ENDCHAR

STARTCHAR iacute
ENCODING 237
SWIDTH 240 0
DWIDTH 6 0
BBX 8 15 2 0
BITMAP
07
0C
10
00
00
38
D8
58
30
30
30
20
64
68
70
ENDCHAR

STARTCHAR icircumflex
ENCODING 238
SWIDTH 240 0
DWIDTH 6 0
BBX 7 15 2 0
BITMAP
0E
1A
62
00
00
38
D8
58
30
30
30
20
64
68
70
ENDCHAR

STARTCHAR imacron
ENCODING 239
SWIDTH 240 0
DWIDTH 6 0
BBX 8 13 2 0
BITMAP
7F
00
00
38
D8
58
30
30
30
20
64
68
70
ENDCHAR

STARTCHAR dcroat
ENCODING 240
SWIDTH 440 0
DWIDTH 11 0
BBX 15 18 2 -1
BITMAP
000E
003E
0040
0040
07F8
00C0
0080
0780
1980
3180
2100
6300
4300
C300
C600
CAC0
F700
4200
ENDCHAR

STARTCHAR ncommaaccent
ENCODING 241
SWIDTH 460 0
DWIDTH 11 0
BBX 11 16 2 -6
BITMAP
39C0
DAC0
54C0
1880
3180
3180
3100
2320
6340
6380
0000
0800
1800
0800
1000
3000
ENDCHAR

STARTCHAR omacron
ENCODING 242
SWIDTH 400 0
DWIDTH 10 0
BBX 10 13 2 0
BITMAP
0FC0
0000
0000
0F00
3380
2180
6180
C180
C180
C100
C200
E400
7800
ENDCHAR

STARTCHAR kcommaaccent
ENCODING 243
SWIDTH 440 0
DWIDTH 11 0
BBX 14 24 3 -7
BITMAP
0380
0780
0800
1800
1000
3000
3000
3780
2980
7100
6700
7800
4800
CC00
C400
C600
C600
0300
1308
318C
10CC
2070
2000
4000
ENDCHAR

STARTCHAR ocircumflex
ENCODING 244
SWIDTH 400 0
DWIDTH 10 0
BBX 10 15 2 0
BITMAP
0380
0680
0C80
1040
0000
0F00
3380
2180
6180
C180
C180
C100
C200
E400
7800
ENDCHAR

STARTCHAR otilde
ENCODING 245
SWIDTH 400 0
DWIDTH 10 0
BBX 10 15 2 0
BITMAP
0F40
1B80
0000
0000
0000
0F00
3380
2180
6180
C180
C180
C100
C200
E400
7800
ENDCHAR

STARTCHAR odieresis
ENCODING 246
SWIDTH 400 0
DWIDTH 10 0
BBX 10 14 2 0
BITMAP
0CC0
0CC0
0000
0000
0F00
3380
2180
6180
C180
C180
C100
C200
E400
7800
ENDCHAR

STARTCHAR divide
ENCODING 247
SWIDTH 520 0
DWIDTH 13 0
BBX 11 9 3 3
BITMAP
0600
0600
0000
0000
FFE0
0000
0000
0600
0600
ENDCHAR

STARTCHAR oslash
ENCODING 248
SWIDTH 440 0
DWIDTH 11 0
BBX 9 10 3 0
BITMAP
0F80
3180
2380
4580
C980
C980
D100
E200
6400
B800
ENDCHAR

STARTCHAR uogonek
ENCODING 249
SWIDTH 460 0
DWIDTH 11 0
BBX 11 15 2 -5
BITMAP
38C0
D8C0
5880
1180
3180
3180
3100
6300
6760
7B80
6300
0200
0200
0300
03C0
ENDCHAR

STARTCHAR uacute
ENCODING 250
SWIDTH 460 0
DWIDTH 11 0
BBX 11 16 2 -1
BITMAP
00E0
0080
0300
0000
0000
18C0
F8C0
58C0
1080
3180
3180
3380
6300
6F60
7380
2100
ENDCHAR

STARTCHAR ucircumflex
ENCODING 251
SWIDTH 460 0
DWIDTH 11 0
BBX 11 16 2 -1
BITMAP
01C0
0340
0E40
0000
0000
18C0
F8C0
58C0
1080
3180
3180
3380
6300
6F60
7380
2100
ENDCHAR

STARTCHAR udieresis
ENCODING 252
SWIDTH 460 0
DWIDTH 11 0
BBX 11 15 2 -1
BITMAP
0660
0660
0000
0000
18C0
F8C0
58C0
1180
3180
3180
3380
6300
6F60
7380
2100
ENDCHAR

STARTCHAR utilde
ENCODING 253
SWIDTH 460 0
DWIDTH 11 0
BBX 11 16 2 -1
BITMAP
0720
0BC0
0000
0000
0000
38C0
58C0
90C0
3080
3180
3180
2380
6300
6F60
7B80
2100
ENDCHAR

STARTCHAR umacron
ENCODING 254
SWIDTH 460 0
DWIDTH 11 0
BBX 11 14 2 -1
BITMAP
07E0
0000
0000
18C0
F8C0
58C0
1080
3180
3180
3380
6300
6F60
7380
2100
ENDCHAR

STARTCHAR dotaccent
ENCODING 255
SWIDTH 220 0
DWIDTH 5 0
BBX 2 2 5 13
BITMAP
C0
C0
ENDCHAR
ENDFONT
